<svg xmlns="http://www.w3.org/2000/svg" xmlns:xlink="http://www.w3.org/1999/xlink" x="0px" y="0px" viewBox="0 0 616 149.37" style="enable-background:new 0 0 616 149.37;" xml:space="preserve"><style type="text/css">	.st0{display:none;fill:#080357;}	.st1{clip-path:url(#SVGID_2_);fill:#FFFFFF;}	.st2{clip-path:url(#SVGID_2_);fill:#D63AF9;}</style><rect x="-46" y="-30.73" class="st0" width="712.57" height="226.77"></rect><g>	<defs>		<rect id="SVGID_1_" x="-48.29" y="-38.7" width="712.57" height="226.77"></rect>	</defs>	<clipPath id="SVGID_2_">		<use xlink:href="#SVGID_1_" style="overflow:visible;"></use>	</clipPath>	<path class="st1" d="M177.55,74.54c0,4.67-0.87,8.71-2.6,12.1c-1.73,3.39-4.02,6.18-6.86,8.37c-2.84,2.19-6.04,3.79-9.61,4.82  c-3.57,1.03-7.19,1.54-10.85,1.54h-19.9V48.01h19.29c3.77,0,7.49,0.44,11.15,1.32c3.67,0.88,6.93,2.34,9.8,4.37  s5.17,4.76,6.93,8.18C176.67,65.29,177.55,69.51,177.55,74.54 M164.13,74.54c0-3.01-0.49-5.51-1.47-7.5  c-0.98-1.99-2.29-3.57-3.92-4.75c-1.63-1.18-3.49-2.02-5.58-2.53c-2.08-0.5-4.23-0.75-6.44-0.75h-6.41v31.2h6.1  c2.31,0,4.53-0.26,6.67-0.79c2.13-0.53,4.02-1.39,5.65-2.6c1.63-1.21,2.94-2.81,3.92-4.82C163.64,79.99,164.13,77.5,164.13,74.54"></path>	<path class="st1" d="M241.68,74.46c0,4.22-0.73,8.08-2.19,11.57c-1.46,3.49-3.48,6.48-6.07,8.97c-2.59,2.49-5.67,4.41-9.23,5.77  c-3.57,1.36-7.44,2.03-11.61,2.03c-4.17,0-8.03-0.68-11.57-2.03c-3.54-1.36-6.61-3.28-9.19-5.77c-2.59-2.49-4.61-5.48-6.07-8.97  c-1.46-3.49-2.19-7.35-2.19-11.57c0-4.27,0.73-8.13,2.19-11.57c1.46-3.44,3.48-6.37,6.07-8.78s5.65-4.27,9.19-5.58  c3.54-1.31,7.4-1.96,11.57-1.96c4.17,0,8.04,0.65,11.61,1.96c3.57,1.31,6.65,3.16,9.23,5.58c2.59,2.41,4.61,5.34,6.07,8.78  C240.96,66.33,241.68,70.19,241.68,74.46 M227.89,74.46c0-2.31-0.38-4.47-1.13-6.48c-0.75-2.01-1.8-3.73-3.13-5.16  c-1.33-1.43-2.94-2.56-4.82-3.39c-1.88-0.83-3.96-1.24-6.22-1.24c-2.26,0-4.32,0.42-6.18,1.24c-1.86,0.83-3.47,1.96-4.82,3.39  c-1.36,1.43-2.4,3.15-3.13,5.16c-0.73,2.01-1.09,4.17-1.09,6.48c0,2.41,0.38,4.64,1.13,6.67c0.75,2.04,1.8,3.78,3.13,5.24  c1.33,1.46,2.93,2.6,4.79,3.43c1.86,0.83,3.92,1.24,6.18,1.24c2.26,0,4.32-0.42,6.18-1.24c1.86-0.83,3.47-1.97,4.82-3.43  c1.36-1.46,2.41-3.2,3.17-5.24C227.51,79.1,227.89,76.87,227.89,74.46"></path>	<polygon class="st1" points="298.59,101.37 298.89,63.61 298.66,63.61 284.8,101.37 275.75,101.37 262.26,63.61 262.03,63.61   262.34,101.37 250.2,101.37 250.2,48.01 268.54,48.01 280.69,82.22 280.99,82.22 292.61,48.01 311.25,48.01 311.25,101.37  "></polygon>	<polygon class="st1" points="322.18,101.37 322.18,48.01 358.05,48.01 358.05,58.86 334.61,58.86 334.61,68.96 356.77,68.96   356.77,79.28 334.61,79.28 334.61,90.36 359.41,90.36 359.41,101.37  "></polygon>	<path class="st1" d="M396.12,61.87c-1.11-1.41-2.55-2.52-4.33-3.35c-1.78-0.83-3.51-1.24-5.16-1.24c-0.86,0-1.72,0.08-2.6,0.23  c-0.88,0.15-1.67,0.44-2.37,0.87c-0.71,0.43-1.3,0.98-1.77,1.66c-0.48,0.68-0.71,1.55-0.71,2.6c0,0.9,0.19,1.66,0.57,2.26  c0.38,0.6,0.93,1.13,1.66,1.58c0.73,0.45,1.59,0.87,2.6,1.24c1.01,0.38,2.14,0.77,3.39,1.17c1.81,0.6,3.69,1.27,5.65,2  c1.96,0.73,3.74,1.69,5.35,2.9c1.61,1.21,2.94,2.7,3.99,4.49c1.05,1.78,1.58,4.01,1.58,6.67c0,3.07-0.57,5.72-1.7,7.95  c-1.13,2.24-2.65,4.08-4.56,5.54c-1.91,1.46-4.09,2.54-6.56,3.24c-2.46,0.7-5,1.06-7.61,1.06c-3.82,0-7.51-0.67-11.08-2  c-3.57-1.33-6.53-3.23-8.89-5.69l8.44-8.59c1.31,1.61,3.03,2.95,5.16,4.03c2.14,1.08,4.26,1.62,6.37,1.62c0.95,0,1.88-0.1,2.79-0.3  c0.9-0.2,1.7-0.53,2.37-0.98c0.68-0.45,1.22-1.06,1.62-1.81c0.4-0.75,0.6-1.66,0.6-2.71c0-1.01-0.25-1.86-0.75-2.56  c-0.5-0.7-1.22-1.34-2.15-1.92c-0.93-0.58-2.09-1.1-3.47-1.58c-1.38-0.48-2.95-0.99-4.71-1.55c-1.71-0.55-3.38-1.21-5.01-1.96  c-1.63-0.75-3.09-1.72-4.37-2.9c-1.28-1.18-2.31-2.61-3.09-4.3c-0.78-1.68-1.17-3.73-1.17-6.14c0-2.96,0.6-5.5,1.81-7.61  s2.79-3.84,4.75-5.2c1.96-1.36,4.17-2.35,6.63-2.98c2.46-0.63,4.95-0.94,7.46-0.94c3.02,0,6.09,0.55,9.23,1.66  c3.14,1.11,5.89,2.74,8.25,4.9L396.12,61.87z"></path>	<polygon class="st1" points="434.33,59.01 434.33,101.37 421.44,101.37 421.44,59.01 406.37,59.01 406.37,48.01 449.4,48.01   449.4,59.01  "></polygon>	<path class="st1" d="M486.94,101.37l-4.14-10.48h-20.65l-3.92,10.48H444.2l22.38-53.36h12.51l22.16,53.36H486.94z M472.62,62.25  l-6.78,18.32h13.42L472.62,62.25z"></path>	<path class="st1" d="M542.56,100.43c-3.47,1.58-7.46,2.37-11.98,2.37c-4.12,0-7.93-0.68-11.42-2.03c-3.49-1.36-6.52-3.28-9.08-5.77  c-2.56-2.49-4.57-5.46-6.03-8.93c-1.46-3.47-2.19-7.29-2.19-11.46c0-4.27,0.74-8.14,2.22-11.61c1.48-3.47,3.53-6.42,6.14-8.86  c2.61-2.44,5.68-4.31,9.2-5.62c3.52-1.31,7.31-1.96,11.38-1.96c3.77,0,7.47,0.67,11.12,2c3.64,1.33,6.6,3.28,8.86,5.84l-8.74,8.74  c-1.2-1.66-2.79-2.89-4.75-3.69c-1.96-0.8-3.97-1.21-6.03-1.21c-2.26,0-4.33,0.42-6.22,1.24c-1.88,0.83-3.5,1.97-4.86,3.43  c-1.36,1.46-2.41,3.18-3.17,5.16c-0.75,1.99-1.13,4.16-1.13,6.52c0,2.41,0.38,4.62,1.13,6.63c0.75,2.01,1.8,3.73,3.13,5.16  c1.33,1.43,2.93,2.55,4.79,3.35c1.86,0.8,3.89,1.21,6.1,1.21c2.56,0,4.8-0.5,6.71-1.51c1.91-1,3.44-2.31,4.6-3.92l8.97,8.44  C548.94,96.69,546.03,98.84,542.56,100.43"></path>	<polygon class="st1" points="589.37,101.37 569.55,76.8 569.39,76.8 569.39,101.37 556.81,101.37 556.81,48.01 569.39,48.01   569.39,69.71 569.62,69.71 588.69,48.01 604.82,48.01 581.83,72.58 606.17,101.37  "></polygon>	<path class="st2" d="M88.5,75.13c1.86-5.98,1.83-12.27-0.07-18.23c0.39-1.25,0.69-2.5,0.91-3.73c1.41-7.99-0.38-16.05-5.03-22.69  C79.65,23.84,72.68,19.41,64.7,18c-7.99-1.41-16.05,0.38-22.69,5.03L17.13,40.45l8.59,12.27l-12.24,8.57l8.58,12.25L9.82,82.09  l34.84,49.75l32.31-22.62C87.95,101.53,92.56,87.86,88.5,75.13 M72.09,102.25l-25.34,17.74L21.68,84.18l5.25-3.68l21.38,30.53  L76.9,91.02c1.54-1.08,2.98-2.3,4.3-3.65C80.36,93.32,77.06,98.77,72.09,102.25 M63.22,26.38c5.75,1.01,10.76,4.21,14.11,8.99  c3.35,4.78,4.64,10.58,3.62,16.33c-1.01,5.75-4.21,10.76-8.99,14.11l-17.9,12.54L28.98,42.54L46.89,30  C51.67,26.65,57.47,25.37,63.22,26.38 M30.6,59.68L51.96,90.2l24.88-17.42c1.54-1.08,2.98-2.3,4.3-3.65  C80.3,75.1,77,80.56,72.02,84.05L50.4,99.18L25.33,63.38L30.6,59.68z"></path></g></svg>
